<?xml version="1.0" encoding="iso-8859-1"?><!-- Generator: Adobe Illustrator 16.0.0, SVG Export Plug-In . SVG Version: 6.00 Build 0) --><!DOCTYPE svg PUBLIC "-//W3C//DTD SVG 1.1//EN" "http://www.w3.org/Graphics/SVG/1.1/DTD/svg11.dtd"><svg version="1.1" id="Layer_1" xmlns="http://www.w3.org/2000/svg" xmlns:xlink="http://www.w3.org/1999/xlink" x="0px" y="0px" width="45.919px" height="45.242px" viewBox="0 0 45.919 45.242" style="enable-background:new 0 0 45.919 45.242;" xml:space="preserve"><path d="M40.798,10c-2.824,0-5.121,2.297-5.121,5.121c0,1.854,0.999,3.465,2.478,4.364l-5.61,10.257	c-0.71-0.271-1.478-0.426-2.284-0.426c-1.375,0-2.647,0.437-3.691,1.173L14.052,17.581c0.807-1.073,1.291-2.402,1.291-3.849	c0-0.73-0.127-1.428-0.352-2.082l6.239-3.306c0.94,1.148,2.35,1.897,3.946,1.897c2.824,0,5.121-2.297,5.121-5.121S28,0,25.177,0	s-5.121,2.297-5.121,5.121c0,0.509,0.098,0.992,0.237,1.457l-6.24,3.307c-1.171-1.557-3.028-2.568-5.126-2.568	c-3.544,0-6.417,2.873-6.417,6.417s2.873,6.417,6.417,6.417c1.375,0,2.647-0.437,3.691-1.173l12.517,12.908	c-0.807,1.073-1.291,2.403-1.291,3.849c0,0.035,0.005,0.069,0.005,0.104L9.884,38.274C9.141,36.363,7.292,35,5.121,35	C2.297,35,0,37.297,0,40.121s2.297,5.121,5.121,5.121c2.782,0,5.042-2.232,5.108-4.998l13.963-2.438	c0.863,2.524,3.25,4.342,6.067,4.342c3.544,0,6.417-2.873,6.417-6.417c0-2.021-0.936-3.821-2.396-4.998l5.781-10.567	c0.243,0.036,0.484,0.075,0.737,0.075c2.824,0,5.121-2.297,5.121-5.121S43.622,10,40.798,10z M25.177,2	c1.721,0,3.121,1.4,3.121,3.121s-1.4,3.121-3.121,3.121s-3.121-1.4-3.121-3.121S23.456,2,25.177,2z M5.121,43.242	C3.4,43.242,2,41.842,2,40.121S3.4,37,5.121,37s3.121,1.4,3.121,3.121S6.842,43.242,5.121,43.242z M40.798,18.242	c-1.721,0-3.121-1.4-3.121-3.121S39.077,12,40.798,12s3.121,1.4,3.121,3.121S42.519,18.242,40.798,18.242z"/><g></g><g></g><g></g><g></g><g></g><g></g><g></g><g></g><g></g><g></g><g></g><g></g><g></g><g></g><g></g></svg>