<?xml version="1.0" encoding="iso-8859-1"?><!-- Generator: Adobe Illustrator 17.1.0, SVG Export Plug-In . SVG Version: 6.00 Build 0) --><!DOCTYPE svg PUBLIC "-//W3C//DTD SVG 1.1//EN" "http://www.w3.org/Graphics/SVG/1.1/DTD/svg11.dtd"><svg version="1.1" id="Capa_1" xmlns="http://www.w3.org/2000/svg" xmlns:xlink="http://www.w3.org/1999/xlink" x="0px" y="0px" viewBox="0 0 150 150" style="enable-background:new 0 0 150 150;" xml:space="preserve"><g><path d="M146.425,5.298c-0.314-0.077-0.629-0.088-0.924-0.088l-0.37,0.002l-0.177-0.002c-0.096,0-0.194,0.016-0.381,0.051	c-0.252-0.019-0.503-0.044-0.755-0.069c-0.405-0.041-0.811-0.082-1.216-0.1c-0.755-0.03-1.515-0.055-2.266,0.007	c-0.38,0.031-0.734,0.135-1.077,0.236c-0.159,0.047-0.318,0.094-0.479,0.132c-0.25,0.059-0.501,0.114-0.752,0.169	c-0.354,0.078-0.708,0.156-1.059,0.244c-0.35,0.087-0.696,0.186-1.043,0.284l-1.315,0.356c-0.591,0.154-1.183,0.309-1.765,0.494	c-0.302,0.097-0.568,0.239-0.826,0.378c-0.142,0.076-0.283,0.152-0.429,0.218c-0.252,0.113-0.507,0.219-0.763,0.325	c-0.405,0.168-0.81,0.336-1.202,0.53c-0.449,0.221-0.883,0.472-1.317,0.722l-0.753,0.43c-0.143,0.082-0.285,0.165-0.435,0.229	c-1.451,0.61-2.602,1.606-3.443,2.405c-0.362,0.345-0.823,0.61-1.312,0.891l-0.296,0.172c-0.853,0.501-1.583,1.199-2.299,2.195	c-0.34,0.474-0.76,0.952-1.284,1.465c-0.081,0.08-0.165,0.156-0.247,0.233c-0.395,0.364-0.841,0.776-1.037,1.444	c-0.015,0.043-0.114,0.147-0.179,0.216c-0.094,0.099-0.187,0.2-0.261,0.308c-0.2,0.29-0.303,0.545-0.326,0.804	c-0.015,0.169-0.001,0.336,0.014,0.485c0.003,0.034,0.008,0.066,0.011,0.097c-0.075,0.069-0.137,0.12-0.142,0.125	c-0.061,0.027-0.12,0.058-0.176,0.091c-0.719,0.425-1.211,1.038-1.45,1.792c-0.021,0.031-0.053,0.059-0.083,0.088	c-0.103,0.104-0.244,0.245-0.312,0.455c-0.026,0.082-0.044,0.163-0.044,0.188c-0.023,0.067-0.17,0.365-0.477,0.911	c-0.277,0.491-0.534,0.995-0.773,1.508c-0.286,0.616-0.519,1.043-0.601,1.146c-0.246,0.312-0.327,0.577-0.246,0.813l0.015,0.036	c-0.008,0.031-0.02,0.069-0.036,0.114c-0.042,0.114-0.108,0.246-0.169,0.369c-0.07,0.142-0.134,0.274-0.17,0.372	c-0.059,0.16-0.09,0.335-0.092,0.552c-0.074,1.096-0.435,2.5-0.784,3.858c-0.264,1.028-0.538,2.092-0.695,3.05	c-1.873,11.335-7.811,25.304-18.858,30.515c-4.239,2-9.124,2.896-13.895,2.547c-0.895-0.064-1.758-0.153-2.604-0.24	c-1.542-0.159-2.999-0.31-4.516-0.31c-1.208,0-2.323,0.099-3.408,0.3c-2.714,0.504-5.426,1.02-8.138,1.535l-4.139,0.791	c-9.571,3.267-17.798,10.707-21.957,19.819c-0.494,0.682-0.628,1.598-0.39,2.399c-0.415,0.206-0.75,0.608-0.906,1.127	c-0.14,0.462-0.11,0.917,0.066,1.289c-0.341,0.249-0.613,0.61-0.773,1.043c-0.22,0.597-0.19,1.229,0.072,1.739l-0.226,0.719	c-2.386,7.593-5.09,16.198-5.303,24.178c-0.017,0.014-0.08,0.044-0.125,0.066l-0.127,0.063c-0.264,0.138-0.394,0.397-0.528,0.666	c-0.024,0.048-0.105,0.125-0.177,0.193c-0.067,0.063-0.134,0.128-0.229,0.233c-0.09,0.095-0.24,0.253-0.268,0.489	c-0.088,0.73-0.161,1.463-0.231,2.195c-0.005,0.055-0.008,0.108-0.009,0.162c-0.044,0.075-0.156,0.229-0.317,0.391	c-0.16,0.16-0.344,0.354-0.493,0.586c-0.182,0.281-0.335,0.581-0.488,0.881c-0.141,0.276-0.28,0.554-0.449,0.812	c-0.176,0.269-0.432,0.543-0.806,0.864c-0.205,0.175-0.406,0.357-0.608,0.54c-0.58,0.525-1.128,1.021-1.751,1.352	c-0.551,0.291-0.982,0.677-1.399,1.05c-0.327,0.292-0.636,0.568-0.983,0.783c-0.147,0.091-0.297,0.178-0.448,0.264	c-0.167,0.097-0.334,0.192-0.498,0.295c-0.233,0.146-0.464,0.295-0.695,0.444c-0.349,0.226-0.697,0.451-1.054,0.662	c-0.551,0.326-1.11,0.641-1.668,0.955l-0.872,0.493c-0.101,0.057-0.2,0.119-0.298,0.181c-0.131,0.083-0.263,0.167-0.401,0.232	c-0.272,0.129-0.548,0.25-0.824,0.371c-0.396,0.174-0.791,0.348-1.176,0.542l-0.6,0.303c-1.05,0.528-2.136,1.074-3.169,1.688	c-0.774,0.459-1.341,1.161-1.639,2.03c-0.123,0.355-0.109,0.701,0.039,0.973c0.125,0.23,0.343,0.395,0.612,0.462	c0.314,0.077,0.629,0.088,0.924,0.088l0.37-0.002l0.177,0.002c0.096,0,0.194-0.016,0.381-0.051	c0.252,0.019,0.503,0.044,0.755,0.069c0.405,0.041,0.811,0.082,1.216,0.1c0.412,0.017,0.825,0.032,1.237,0.032	c0.344,0,0.688-0.011,1.029-0.039c0.38-0.031,0.734-0.135,1.077-0.236c0.159-0.047,0.318-0.094,0.479-0.132	c0.25-0.059,0.501-0.114,0.752-0.169c0.354-0.078,0.708-0.156,1.059-0.244c0.35-0.087,0.697-0.186,1.044-0.284l1.314-0.356	c0.591-0.154,1.183-0.309,1.765-0.494c0.301-0.097,0.568-0.239,0.825-0.377c0.142-0.076,0.284-0.153,0.431-0.219	c0.252-0.113,0.508-0.22,0.764-0.325c0.404-0.168,0.809-0.337,1.2-0.53c0.449-0.221,0.883-0.472,1.317-0.722l0.753-0.43	c0.143-0.082,0.285-0.165,0.435-0.229c1.451-0.61,2.602-1.606,3.443-2.405c0.362-0.345,0.823-0.61,1.312-0.891l0.296-0.172	c0.853-0.501,1.583-1.199,2.299-2.195c0.34-0.474,0.76-0.952,1.284-1.465c0.081-0.08,0.165-0.156,0.247-0.233	c0.395-0.364,0.841-0.776,1.037-1.444c0.015-0.043,0.114-0.148,0.18-0.218c0.093-0.098,0.186-0.198,0.26-0.306	c0.07-0.101,0.131-0.201,0.181-0.304c0.043-0.087,0.316-0.505,0.665-0.96c4.355-5.693,6.045-12.718,7.679-19.512	c2.124-8.829,4.13-17.169,11.451-23.03c3.24-2.595,7.146-4.474,11.296-5.435c2.905-0.673,5.255-1,7.182-1	c1.541,0,2.783,0.214,3.692,0.635c0.05,0.023,0.104,0.046,0.16,0.065c0.03,0.012,0.083,0.045,0.133,0.078	c0.09,0.058,0.181,0.113,0.278,0.154c0.099,0.042,0.204,0.071,0.317,0.096l0.168,0.02c0.188,0,0.361-0.072,0.488-0.203	c0.053-0.056,0.095-0.118,0.126-0.187c0.038-0.006,0.086-0.01,0.143-0.01c0.244,0.001,0.787,0.099,1.184,0.171l0.518,0.089	c0.176,0.028,0.35,0.057,0.523,0.092l0.175,0.018c0.278-0.001,0.531-0.126,0.699-0.222c0.717-0.413,1.989-0.42,3.219-0.428	c1.013-0.005,2.06-0.012,2.898-0.242c4.454-0.356,8.858-1.71,12.667-3.881c4.882-1.782,9.079-4.878,13.647-10.085	c0.149-0.166,0.374-0.417,0.351-0.746c-0.014-0.213,0.024-0.326,0.292-0.438c0.281-0.117,1.028-0.429,0.949-1.361	c0.016-0.06,0.115-0.183,0.17-0.213c0.599-0.304,0.867-0.759,0.82-1.393c-0.017-0.229,0.054-0.27,0.171-0.31	c0.297-0.102,0.957-0.44,0.679-1.409c-0.033-0.115-0.042-0.172-0.056-0.177c0.017-0.011,0.051-0.03,0.111-0.054	c1.013-0.39,1.048-0.875,0.748-1.754c-0.016-0.046-0.031-0.093-0.046-0.142c0.332-0.029,0.641-0.199,0.84-0.466	c0.219-0.292,0.285-0.663,0.18-1.019c-0.051-0.173-0.124-0.339-0.202-0.504c0.231-0.048,0.458-0.19,0.643-0.408	c0.149-0.177,0.312-0.393,0.391-0.662c0.077-0.266,0.054-0.533,0.021-0.76c-0.034-0.236-0.165-0.41-0.289-0.545	c0.213-0.061,0.417-0.221,0.587-0.465c0.151-0.217,0.271-0.404,0.363-0.616c0.143-0.324,0.07-0.821-0.161-1.109	c-0.102-0.126-0.173-0.251-0.219-0.386c0.458-0.008,0.877-0.39,1.023-0.934c0.118-0.439,0.038-0.852-0.244-1.262	c-0.009-0.013-0.026-0.055-0.036-0.19c0.322,0.029,0.616-0.137,0.74-0.414c0.03-0.065,0.061-0.133,0.1-0.196	c0.281-0.463,0.274-0.909-0.021-1.362c-0.094-0.145-0.126-0.227-0.142-0.243c0.032-0.023,0.095-0.053,0.131-0.07	c0.103-0.05,0.322-0.154,0.398-0.4c0.174-0.134,0.288-0.294,0.338-0.479c0.101-0.37-0.087-0.684-0.256-0.967l-0.084-0.135	c-0.047-0.075-0.119-0.183-0.142-0.155c0,0,0.018-0.024,0.083-0.068c0.204-0.138,0.252-0.351,0.262-0.505	c0.151-0.079,0.27-0.211,0.332-0.371c0.079-0.203,0.063-0.437-0.044-0.641c-0.062-0.117-0.126-0.227-0.205-0.326	c-0.064-0.081-0.076-0.148-0.066-0.186c0.018-0.066,0.193-0.194,0.276-0.256c0.122-0.089,0.237-0.174,0.32-0.294	c0.076-0.108,0.147-0.217,0.212-0.332c0.107-0.193,0.151-0.431,0.118-0.636c-0.043-0.269-0.092-0.537-0.143-0.812	c-0.009-0.046-0.015-0.087-0.02-0.124c0.338-0.16,0.575-0.544,0.676-0.732c0.212-0.401,0.189-0.811-0.069-1.217	c-0.08-0.126-0.135-0.285-0.187-0.481c0.312-0.104,0.589-0.405,0.756-0.837c0.18-0.46,0.12-0.884-0.184-1.293	c-0.163-0.22-0.108-0.395,0.308-0.953c0.346-0.465,0.39-0.968,0.13-1.496c-0.078-0.157-0.09-0.312,0.092-0.6	c0.465-0.736,0.919-1.607,0.47-2.665c0.013-0.033,0.037-0.086,0.079-0.163c0.077-0.141,0.162-0.277,0.247-0.414	c0.378-0.607,0.85-1.364,0.491-2.405c-0.061-0.177-0.064-0.399-0.066-0.675c0.017-0.015,0.08-0.045,0.125-0.066l0.128-0.064	c0.264-0.138,0.394-0.397,0.528-0.666c0.024-0.048,0.105-0.125,0.177-0.193c0.067-0.063,0.134-0.128,0.229-0.233	c0.09-0.095,0.24-0.253,0.268-0.489c0.088-0.73,0.161-1.463,0.231-2.195c0.005-0.055,0.008-0.108,0.009-0.162	c0.044-0.075,0.156-0.229,0.317-0.391c0.16-0.16,0.344-0.354,0.493-0.586c0.182-0.281,0.335-0.581,0.488-0.881	c0.141-0.276,0.28-0.554,0.449-0.812c0.176-0.269,0.433-0.544,0.807-0.864c0.202-0.174,0.402-0.354,0.602-0.535	c0.582-0.527,1.132-1.025,1.757-1.355c0.551-0.292,0.983-0.678,1.4-1.052c0.327-0.292,0.635-0.567,0.982-0.782	c0.147-0.091,0.297-0.178,0.448-0.264c0.167-0.097,0.334-0.192,0.498-0.295c0.233-0.146,0.464-0.295,0.695-0.444	c0.349-0.226,0.697-0.451,1.054-0.662c0.551-0.326,1.11-0.641,1.668-0.955l0.872-0.493c0.101-0.057,0.2-0.119,0.298-0.181	c0.131-0.083,0.263-0.167,0.401-0.232c0.272-0.129,0.548-0.25,0.824-0.371c0.396-0.174,0.791-0.348,1.176-0.542l0.6-0.303	c1.05-0.528,2.136-1.074,3.169-1.688c0.774-0.459,1.341-1.161,1.639-2.03c0.123-0.355,0.109-0.701-0.039-0.973	C146.912,5.529,146.695,5.365,146.425,5.298z"/></g></svg>